<?xml version="1.0" encoding="UTF-8" standalone="no"?>
<svg xmlns:rdf="http://www.w3.org/1999/02/22-rdf-syntax-ns#" xmlns="http://www.w3.org/2000/svg" enable-background="new 0 0 296.249 88.158" xml:space="preserve" height="88.158px" viewBox="0 0 296.249 88.158" width="296.25px" version="1.1" y="0px" x="0px" xmlns:cc="http://creativecommons.org/ns#" xmlns:dc="http://purl.org/dc/elements/1.1/"><g style=""><path fill="#903" d="m163.97 0.021484c-4.35 0-7.76 0.017578-13.1 0.017578-10.18 0-19.78 1.5551-23.02 9.9939l-1.92-7.4803c-0.47-1.469-2.08-2.5293-3.67-2.5293l-2.49 0.000038-24.881 0.001953h-1.846-4.031c-0.477 0-0.651 0.15123-0.401 0.49023 0 0 0.9 0.86358 2.535 2.7266 2.271 2.586 1.379 6.0449 1.379 6.0449l-12.166 48.535h17.713l2.558-10.664h17.09l2.67 10.664h18.2c1.79 0.001 3.61 0 5.13 0 9.58 0 17.36-0.975 21.21-6.935 2.87 5.433 9.05 7.988 19.95 7.049 3.8-0.326 7.53-2.102 9.13-4.915l0.73 2.338c0.64 1.411 1.94 2.455 3.79 2.455h8.6 1.49 7.74c0.48 0 0.65-0.139 0.4-0.478 0 0-0.95-1.058-2.53-2.75-1.96-2.101-1.85-4.324-1.85-4.324v-9.309-40.93l-19.1 0.000438v40.176c-0.23 3.807-3.96 4.777-6.03 4.711-2.96-0.093-4.68-1.748-4.68-4.592v-40.281l-18.6 0.000109v-0.015625zm-54.79 12.881l5.94 23.727h-11.84l5.9-23.727zm1.77 55.092c-0.13 0.565-0.64 0.588-0.67 0.588-0.27 0-0.71-0.121-1-0.221-0.67-0.221-1.58-0.343-2.39-0.343-3.66 0-5.14 2.581-5.14 4.718 0 2.949 2.12 4.277 4.21 5.58 2.43 1.5 3.78 2.654 3.78 4.424 0 1.746-1.47 3.121-3.22 3.121-0.98 0-2.26-0.418-3.05-1.033-1.27-1.008-1.52-2.383-1.62-3.047h-0.24l-0.2 4.522h0.24c0.05-0.613 0.45-0.737 0.72-0.737s0.39 0.049 1.4 0.467c0.66 0.27 1.57 0.518 2.75 0.518 1.45 0 2.63-0.246 3.84-1.375 1.32-1.229 1.62-2.583 1.62-3.69 0-2.826-2.04-4.052-4.57-5.65-1.85-1.156-3.62-2.359-3.62-4.277 0-1.449 1.06-2.901 3.12-2.901 2.19 0 3.47 1.452 3.84 3.442h0.25l0.19-4.106h-0.24zm-105.7 0.195v0.237c0.782 0.047 1.9024 0.402 1.6114 1.5l-4.3516 13.529c-0.369 1.13-1.0588 2.31-2.5078 2.408v0.246h4.7188v-0.246c-0.418-0.025-1.4747-0.097-1.4747-1.425 0-0.27 0.098-0.885 0.295-1.475l1.3027-4.057h5.6782l1.474 4.352c0.271 0.787 0.295 1.055 0.295 1.277 0 1.277-1.204 1.301-1.769 1.326v0.246h6.857v-0.246c-1.058-0.146-1.917-0.44-2.703-2.75l-5.1135-14.922h-4.3125zm161.85 0.03v0.244c0.81 0.05 2.02 0.195 2.02 2.064v9.143c0 5.506 3.93 6.685 6.24 6.685 3.39 0 5.01-2.235 5.53-3.293h0.05v3.045h4.62v-0.246c-0.81-0.026-2.02-0.171-2.02-2.015v-13.319c0-1.869 1.18-2.013 2.02-2.064v-0.244h-6.66v0.244c0.81 0.05 2.01 0.195 2.01 2.064v9.459c0 0.517-0.02 1.944-0.69 2.95-0.68 1.033-2.16 2.115-4.03 2.115-1.67 0-3.29-0.91-3.98-2.582-0.37-0.908-0.46-1.917-0.46-2.899v-9.043c0-1.869 1.18-2.013 1.99-2.064v-0.244h-6.64zm-159.53 2.109h0.0507l2.6059 7.719h-5.1137l2.4571-7.719zm105.77 1.152v3.385h0.19c0.22-1.808 1.58-1.945 2.7-1.945h2.36v11.4c0 1.477-0.97 1.576-1.6 1.594v0.195h5.28v-0.195c-0.61-0.018-1.6-0.076-1.6-1.594v-11.4h2.35c1.03 0 2.55 0.136 2.71 1.945h0.19v-3.385h-0.19c-0.04 0.173-0.14 0.409-0.43 0.487-0.27 0.078-0.56 0.154-1.83 0.154h-7.68c-0.41 0-1.5-0.057-1.79-0.193s-0.39-0.216-0.47-0.448h-0.19zm25.04 0v3.385h0.19c0.22-1.808 1.58-1.945 2.71-1.945h2.35v11.4c0 1.477-0.97 1.576-1.59 1.594v0.195h5.27v-0.195c-0.61-0.018-1.6-0.076-1.6-1.594v-11.4h2.35c1.04 0 2.55 0.136 2.71 1.945h0.19v-3.385h-0.19c-0.04 0.173-0.14 0.409-0.43 0.487-0.27 0.078-0.56 0.154-1.83 0.154h-7.68c-0.41 0-1.5-0.056-1.79-0.193-0.29-0.136-0.39-0.216-0.47-0.448h-0.19zm131.08 0v3.385h0.2c0.21-1.808 1.57-1.945 2.7-1.945h2.35v11.4c0 1.477-0.97 1.576-1.59 1.594v0.195h5.27v-0.195c-0.6-0.018-1.6-0.076-1.6-1.594v-11.4h2.36c1.03 0 2.55 0.136 2.7 1.945h0.2v-3.385h-0.2c-0.04 0.173-0.13 0.409-0.42 0.487-0.28 0.078-0.57 0.154-1.83 0.154h-7.69c-0.41 0-1.49-0.057-1.79-0.193-0.29-0.136-0.39-0.216-0.46-0.448h-0.2zm-10.59 0.291c-0.09 0.449-0.5 0.467-0.52 0.467-0.21 0-0.57-0.096-0.8-0.174-0.52-0.175-1.24-0.273-1.89-0.273-2.89 0-4.06 2.043-4.06 3.736 0 2.334 1.67 3.385 3.33 4.416 1.92 1.186 2.99 2.1 2.99 3.5 0 1.383-1.17 2.471-2.55 2.471-0.78 0-1.79-0.33-2.41-0.816-1.01-0.797-1.21-1.887-1.28-2.412h-0.2l-0.15 3.58h0.19c0.04-0.486 0.35-0.584 0.57-0.584 0.21 0 0.31 0.039 1.1 0.369 0.53 0.215 1.25 0.408 2.18 0.408 1.15 0 2.08-0.193 3.04-1.088 1.05-0.975 1.28-2.043 1.28-2.92 0-2.237-1.61-3.208-3.62-4.472-1.46-0.916-2.86-1.869-2.86-3.387 0-1.147 0.84-2.295 2.47-2.295 1.73 0 2.75 1.148 3.04 2.724h0.19l0.16-3.25h-0.2zm-199.03 0.02c-3.891 0-7.355 3.113-7.354 7.393 0 4.201 3.404 7.275 7.469 7.275 4.318 0 7.315-3.345 7.315-7.314 0-4.532-3.637-7.354-7.43-7.354zm28.367 0.137l-3.852 12.08c-0.291 0.896-0.837 1.83-1.984 1.906v0.195h3.734v-0.195c-0.33-0.018-1.166-0.076-1.166-1.127 0-0.215 0.078-0.701 0.233-1.168l1.031-3.209h4.492l1.168 3.442c0.213 0.623 0.235 0.837 0.235 1.011 0 1.012-0.955 1.033-1.403 1.051v0.195h5.428v-0.195c-0.836-0.117-1.517-0.35-2.139-2.178l-4.046-11.808h-1.731zm42.853 0l-3.85 12.08c-0.29 0.896-0.84 1.83-1.99 1.906v0.195h3.74v-0.195c-0.33-0.018-1.17-0.076-1.17-1.127 0-0.215 0.08-0.701 0.24-1.168l1.03-3.209h4.49l1.17 3.442c0.21 0.623 0.23 0.837 0.23 1.011 0 1.012-0.95 1.033-1.4 1.051v0.195h5.43v-0.195c-0.84-0.117-1.52-0.35-2.14-2.178l-4.05-11.808h-1.73zm-91.689 0.193v2.647h0.215c0.214-1.595 1.108-1.946 2.879-1.946h6.322l-9.416 12.996v0.291h12.217l0.428-2.957h-0.194c-0.292 0.895-0.798 2.354-4.222 2.354h-5.487l9.475-13.383v-0.002h-12.217zm243.34 0v0.193c1.07 0 1.65 0.624 1.95 1.032 0.38 0.545 0.42 0.603 0.44 0.642 0.02 0.019 0.06 0.058 0.06 0.078l3.21 4.981v5.271c0 1.459-0.91 1.594-1.57 1.594v0.195h5.23v-0.195c-0.88 0-1.58-0.135-1.58-1.594v-5.369l2.88-4.416c0.06-0.098 1.01-1.518 1.71-1.926 0.37-0.215 0.76-0.254 1.21-0.293v-0.193h-4.22v0.193c0.31 0.02 1.17 0.059 1.17 0.721 0 0.33-0.3 0.934-0.65 1.459-0.02 0.039-0.06 0.076-0.06 0.076l-2.33 3.563-2.49-3.93c-0.18-0.293-0.47-0.757-0.47-1.107 0-0.779 0.78-0.78 1.13-0.78v-0.193-0.002h-5.62zm-264.45 0.002v0.193c0.584 0 1.595 0.098 1.595 1.635v10.369c0 1.088-0.506 1.594-1.576 1.594v0.195h5.252v-0.195c-0.972 0-1.576-0.467-1.576-1.633v-4.843c0.973 0.04 1.305 0.134 1.674 0.31 0.896 0.447 1.79 1.887 1.81 1.926 0.077 0.117 0.076 0.136 0.096 0.156l1.869 2.84c0.02 0.02 0.04 0.059 0.059 0.098 0.039 0.039 0.33 0.446 0.408 0.544 0.253 0.39 0.427 0.563 0.621 0.797h3.309v-0.195c-0.681-0.135-1.459-0.467-2.51-2.139-0.02-0.039-0.059-0.077-0.059-0.097l-1.246-1.926-0.095-0.117c-0.856-1.244-1.538-2.197-2.705-2.547v-0.041c2.081-0.369 3.171-1.633 3.171-3.346 0-1.459-0.818-2.664-2.199-3.209-0.545-0.215-1.263-0.369-3.072-0.369h-4.826zm14.263 0v0.193c0.602 0.039 1.575 0.118 1.575 1.577v10.427c0 1.498-0.991 1.576-1.575 1.594v0.195h5.233v-0.195c-0.584-0.018-1.576-0.076-1.576-1.594v-10.427c0-1.459 0.992-1.538 1.576-1.577v-0.193h-5.233zm34.905 0v0.193c0.429 0.039 0.991 0.079 1.808 1.032 0.019 0.039 0.058 0.058 0.078 0.078l0.545 0.623v10.271c0 1.498-0.993 1.576-1.576 1.594v0.195h3.832v-0.195c-0.584-0.018-1.576-0.076-1.576-1.594v-9.533l10.369 11.67h0.235v-12.564c0-1.439 0.951-1.538 1.593-1.577v-0.193h-3.871v0.193c0.623 0.039 1.598 0.138 1.598 1.577v8.949l-9.611-10.719h-3.424zm85.192 0v0.193h0.19c1.42 0 1.4 1.479 1.4 1.635v10.33c0 1.574-1.01 1.633-1.59 1.633v0.195h9.08l0.41-2.257h-0.2c-0.34 1.304-0.99 1.732-2.31 1.732h-1.87c-1.46 0-1.44-0.934-1.44-1.518v-4.726h2.77c1.05 0 1.69 0.525 1.77 1.478h0.19v-3.443h-0.19c-0.12 1.439-1.56 1.439-1.91 1.439h-2.63v-6.168h3.31c1.17 0 1.91 0.449 1.91 1.752h0.19v-2.275h-9.08zm34.31 0v0.193c0.42 0.039 0.99 0.079 1.8 1.032 0.02 0.039 0.06 0.058 0.08 0.078l0.55 0.623v10.269c0 1.498-0.99 1.576-1.58 1.594v0.195h3.83v-0.195c-0.58-0.018-1.57-0.076-1.57-1.594v-9.533l10.37 11.672h0.23v-12.564c0-1.439 0.95-1.538 1.6-1.577v-0.193h-3.88v0.193c0.63 0.039 1.6 0.138 1.6 1.577v8.949l-9.61-10.719h-3.42zm17.1 0v0.193c0.6 0.039 1.58 0.118 1.58 1.577v10.427c0 1.498-1 1.576-1.58 1.594v0.195h5.23v-0.195c-0.58-0.018-1.57-0.076-1.57-1.594v-10.427c0-1.459 0.99-1.538 1.57-1.577v-0.193h-5.23zm15.78 0v0.193c0.43 0.02 1.28 0.059 1.28 1.09 0 0.251-0.14 0.954-0.31 1.44-0.02 0.019-0.06 0.156-0.06 0.156l-2.68 7.82-3.12-7.82c-0.02-0.039-0.43-1.071-0.43-1.557 0-1.129 1-1.129 1.39-1.129v-0.191h-5.57v0.193c1.23 0.195 1.52 0.819 1.91 1.616 0.04 0.078 0.08 0.155 0.08 0.173 0.04 0.041 0.06 0.1 0.08 0.157l4.92 12.197h0.15l4.03-11.457c0.02-0.039 0.21-0.567 0.25-0.645 0.7-1.809 1.46-1.984 2.1-2.043v-0.193h-4.02zm5.27 0v0.193h0.19c1.42 0 1.4 1.479 1.4 1.635v10.33c0 1.574-1.01 1.633-1.59 1.633v0.195h9.08l0.41-2.257h-0.19c-0.35 1.304-0.99 1.732-2.32 1.732h-1.86c-1.46 0-1.44-0.934-1.44-1.518v-4.726h2.76c1.05 0 1.69 0.525 1.77 1.478h0.19v-3.443h-0.19c-0.12 1.439-1.56 1.439-1.91 1.439h-2.62v-6.168h3.3c1.17 0 1.91 0.449 1.91 1.752h0.19v-2.275h-9.08zm11.63 0v0.193c0.59 0 1.6 0.098 1.6 1.635v10.369c0 1.088-0.51 1.594-1.58 1.594v0.195h5.25v-0.195c-0.97 0-1.57-0.467-1.57-1.633v-4.843c0.97 0.04 1.3 0.134 1.67 0.31 0.9 0.447 1.79 1.887 1.81 1.926 0.08 0.117 0.08 0.136 0.1 0.156l1.87 2.84c0.02 0.02 0.04 0.059 0.06 0.098 0.04 0.039 0.33 0.446 0.4 0.544 0.26 0.39 0.43 0.563 0.63 0.797h3.3v-0.195c-0.68-0.135-1.45-0.467-2.51-2.139-0.01-0.039-0.05-0.077-0.05-0.097l-1.25-1.926-0.1-0.117c-0.85-1.244-1.53-2.197-2.7-2.547v-0.041c2.08-0.369 3.17-1.633 3.17-3.346 0-1.459-0.82-2.664-2.2-3.209-0.54-0.215-1.26-0.369-3.07-0.369h-4.83zm25.57 0v0.193c0.6 0.039 1.58 0.118 1.58 1.577v10.427c0 1.498-1 1.576-1.58 1.594v0.195h5.23v-0.195c-0.58-0.018-1.57-0.076-1.57-1.594v-10.427c0-1.459 0.99-1.538 1.57-1.577v-0.193h-5.23zm-202.71 0.098c2.899 0 5.213 2.836 5.213 7.232 0 3.698-1.692 6.481-4.687 6.481-3.347 0-5.154-3.229-5.154-7.159 0-5.311 2.838-6.554 4.628-6.554zm-36.423 0.425c2.53 0 2.976 2.199 2.976 3.211 0 2.938-2.431 3.055-4.162 3.055h-0.002v-6.148c0.312-0.117 0.838-0.118 1.188-0.118zm218.46 0c2.53 0 2.97 2.199 2.97 3.211 0 2.938-2.43 3.055-4.16 3.055v-6.148c0.31-0.117 0.84-0.118 1.19-0.118zm-153.24 0.975h0.039l2.063 6.108h-4.045l1.943-6.108zm42.849 0h0.04l2.07 6.108h-4.05l1.94-6.108z"/><path d="m164.4 3.9141c-0.06 0.0148-0.12 0.0503-0.16 0.0957l-0.01-0.0059-0.01 0.0098-0.03 0.0312-1.2 1.4883v-0.0059l-0.03 0.0332-0.09 0.1094-5.98 7.3531c-2.02-0.968-5.4-1.562-6.95-1.562-0.03 0-0.08-0.002-0.14-0.004-3.2-0.079-5.59 0.552-6.89 1.826-0.76 0.737-1.14 1.689-1.14 2.828 0 1.566 0.88 2.848 2.78 4.037 1.69 1.063 4.05 1.953 6.54 2.895 3.25 1.229 6.94 2.62 9.96 4.703 3.47 2.389 5.51 5.312 6.24 8.934l0.01 0.031v0.01l0.01 0.002 0.03 0.006 11.12 2.49 0.04 0.01 0.01 0.001 0.01-0.011c0.15 0.021 0.31-0.058 0.37-0.201 0.03-0.078 0.03-0.165-0.01-0.243-0.02-0.058-0.07-0.101-0.13-0.134l0.01-0.014-0.02-0.008-0.04-0.019-10.89-4.756v-0.002l-0.01-0.002c-0.03-0.006-0.05-0.022-0.06-0.047-0.02-0.028-0.02-0.064-0.01-0.092 0.01-0.054 0.08-0.083 0.14-0.068h0.01v0.002l12.08 0.761 0.05 0.004h0.01l0.01-0.013c0.15-0.005 0.3-0.11 0.33-0.26 0.01-0.08-0.01-0.162-0.06-0.232-0.03-0.055-0.09-0.09-0.15-0.114v-0.002-0.015l-0.02-0.004-0.04-0.012-11.65-2.99-0.01-0.002c-0.04-0.002-0.06-0.018-0.08-0.041-0.02-0.021-0.03-0.045-0.03-0.07 0.01-0.051 0.06-0.105 0.13-0.1h0.01l12.06-1.133 0.04-0.004h0.02v-0.015c0.06-0.014 0.13-0.039 0.18-0.088 0.06-0.058 0.1-0.137 0.1-0.219 0-0.08-0.04-0.16-0.1-0.221-0.05-0.048-0.11-0.074-0.18-0.088v-0.002-0.013h-0.01l-0.05-0.004-12.06-1.135h-0.01-0.01c-0.06 0.005-0.11-0.035-0.11-0.092-0.01-0.03 0-0.06 0.02-0.082 0.02-0.014 0.03-0.032 0.07-0.035h0.01l11.66-2.992 0.05-0.012 0.02-0.004-0.01-0.013c0.07-0.024 0.12-0.061 0.16-0.116 0.05-0.07 0.07-0.151 0.05-0.232-0.03-0.15-0.17-0.257-0.33-0.262v-0.012h-0.01l-0.05 0.002-12.1 0.762h-0.01v0.002c-0.07 0.015-0.12-0.015-0.14-0.07-0.01-0.028-0.01-0.061 0.01-0.086 0.01-0.015 0.02-0.035 0.06-0.043l0.01-0.002 10.91-4.764 0.05-0.019 0.01-0.006-0.01-0.016c0.06-0.033 0.11-0.076 0.13-0.135 0.04-0.078 0.04-0.164 0.01-0.242-0.06-0.14-0.22-0.206-0.37-0.189v-0.014l-0.01-0.012-0.01 0.002-0.05 0.01-11.78 2.637-0.01 0.002c-0.06 0.025-0.14 0.004-0.16-0.043-0.02-0.022-0.02-0.048-0.01-0.074 0.01-0.028 0.03-0.051 0.06-0.063v-0.002h0.01v-0.002-0.002l9.83-6.394 0.05-0.03 0.01-0.007-0.01-0.012c0.05-0.041 0.09-0.089 0.1-0.15 0.03-0.082 0.01-0.173-0.03-0.245-0.09-0.128-0.26-0.169-0.41-0.127v-0.009l-0.01-0.01-0.01 0.004-0.04 0.015-11.1 4.432-0.01 0.002v0.002c-0.06 0.035-0.12 0.025-0.16-0.02-0.02-0.024-0.03-0.056-0.02-0.085 0-0.017 0.01-0.039 0.03-0.055l0.01-0.002v-0.002-0.004l8.45-7.83 0.04-0.035 0.01-0.012-0.01-0.01c0.04-0.045 0.07-0.099 0.07-0.16 0.01-0.087-0.02-0.172-0.08-0.236-0.11-0.114-0.29-0.139-0.43-0.072v-0.002l-0.01-0.008-0.01 0.006-0.04 0.021-10.07 6.096-0.01 0.002v0.002 0.004c-0.05 0.039-0.12 0.034-0.17-0.01-0.02-0.018-0.03-0.043-0.03-0.067s0.01-0.048 0.03-0.066v-0.002-0.002l0.01-0.004 6.8-9.0271 0.03-0.041 0.01-0.0117-0.01-0.0078c0.02-0.0497 0.04-0.1035 0.04-0.1621-0.01-0.089-0.06-0.1706-0.13-0.2266-0.13-0.0954-0.31-0.092-0.44-0.0039l-0.01-0.0098-0.01 0.0098-0.03 0.0254-8.74 7.5708v0.001 0.002l-0.01 0.004c-0.03 0.049-0.11 0.066-0.16 0.034-0.03-0.018-0.05-0.048-0.05-0.077-0.01-0.014-0.01-0.034 0.01-0.054v-0.004l0.01-0.002v-0.004l4.95-9.961 0.02-0.045 0.01-0.0136-0.01-0.0039c0.02-0.0521 0.02-0.1064 0.01-0.1622-0.03-0.088-0.09-0.163-0.17-0.207-0.08-0.042-0.18-0.0509-0.27-0.0312zm-40.48 6.3849c-0.09 0.008-0.17 0.047-0.23 0.111-0.07 0.064-0.1 0.151-0.09 0.238 0.01 0.061 0.04 0.114 0.07 0.161l-0.01 0.009 0.02 0.01 0.03 0.035 3.27 3.035 0.07 0.067 0.03 0.019v-0.029l0.01-0.096c0.07-0.508 0.16-1.017 0.27-1.517l0.01-0.035v-0.012l-0.01-0.006-0.03-0.018-3.16-1.916-0.04-0.019-0.01-0.008-0.01 0.01-0.01 0.01c-0.05-0.027-0.12-0.055-0.18-0.049zm-3.06 4.105v0.01l-0.01 0.012c-0.15-0.04-0.32-0.001-0.4 0.127-0.05 0.072-0.06 0.161-0.04 0.244 0.02 0.062 0.06 0.112 0.11 0.152l-0.01 0.012 0.01 0.008 0.04 0.025 6.34 4.125 0.09 0.057 0.02 0.017v-0.031l-0.01-0.103c-0.07-0.661-0.11-1.348-0.11-2.043v-0.086-0.073-0.035h-0.03l0.01-0.011 0.01-0.002s-0.01-0.006-0.03-0.012l-5.94-2.371-0.03-0.018-0.02-0.004zm-2.42 4.522v0.012 0.011c-0.16-0.016-0.32 0.052-0.38 0.192-0.03 0.078-0.02 0.162 0.01 0.24 0.03 0.058 0.08 0.101 0.13 0.135v0.013l0.01 0.006 0.05 0.022 9.95 4.347 0.13 0.053 0.03 0.018-0.01-0.037-0.06-0.122c-0.43-0.89-0.76-1.853-0.99-2.867v-0.031l-0.01-0.01-0.01-0.002-0.03-0.006-8.76-1.962-0.04-0.008-0.02-0.004zm-1.51 4.832v0.012 0.011c-0.15 0.009-0.3 0.098-0.33 0.246-0.01 0.081 0 0.166 0.05 0.235 0.04 0.055 0.1 0.089 0.16 0.113v0.002 0.012l0.01 0.004 0.05 0.011 11.67 2.996h0.01c0.04 0.002 0.07 0.018 0.09 0.041 0.01 0.019 0.02 0.043 0.02 0.065-0.01 0.052-0.06 0.104-0.13 0.099h-0.01l-12.07 1.133-0.05 0.004-0.02 0.002v0.014c-0.15 0.029-0.27 0.155-0.27 0.308 0 0.082 0.03 0.159 0.09 0.221 0.05 0.049 0.12 0.077 0.18 0.09v0.014l0.02 0.002 0.05 0.003 12.05 1.133h0.01c0.07-0.006 0.12 0.036 0.13 0.09 0 0.028-0.01 0.058-0.03 0.082-0.02 0.021-0.04 0.035-0.07 0.037l-0.01 0.002-11.66 2.992-0.05 0.012-0.01 0.004v0.014c-0.06 0.023-0.12 0.06-0.16 0.117-0.05 0.069-0.06 0.151-0.05 0.232 0.03 0.149 0.17 0.253 0.33 0.26v0.012h0.01l0.05-0.004 12.09-0.762 0.01-0.002c0.06-0.015 0.12 0.018 0.14 0.071 0.01 0.027 0 0.058-0.01 0.085-0.02 0.025-0.04 0.043-0.06 0.049h-0.01v0.002 0.002l-10.9 4.758-0.04 0.02-0.02 0.007 0.01 0.014c-0.06 0.033-0.11 0.078-0.14 0.137-0.03 0.078-0.04 0.162 0 0.24 0.05 0.141 0.21 0.207 0.37 0.189v0.012l0.01 0.014 0.01-0.004 0.04-0.01 11.75-2.631 0.01-0.002v-0.002c0.06-0.023 0.14 0.009 0.17 0.063 0.01 0.021 0.01 0.044 0 0.068-0.01 0.03-0.03 0.056-0.06 0.067v0.002l-0.01 0.004-9.8 6.375-0.04 0.027-0.01 0.008 0.01 0.011c-0.05 0.041-0.09 0.09-0.11 0.153-0.02 0.082-0.01 0.17 0.04 0.242 0.08 0.128 0.25 0.168 0.4 0.127l0.01 0.01v0.011l0.02-0.005 0.03-0.016 11.06-4.414v-0.002-0.002l0.01-0.002c0.05-0.033 0.13-0.023 0.16 0.023 0.03 0.026 0.03 0.064 0.03 0.098 0 0.017-0.01 0.041-0.04 0.055v0.002 0.002 0.004l-8.42 7.798-0.04 0.036-0.01 0.011 0.01 0.01c-0.03 0.047-0.06 0.099-0.07 0.16-0.01 0.086 0.02 0.173 0.09 0.238 0.1 0.113 0.27 0.125 0.41 0.063l0.01 0.01 0.01 0.009 0.01-0.007 0.04-0.022 10.03-6.066v-0.002-0.002l0.01-0.006c0.04-0.04 0.12-0.04 0.16 0 0.06 0.049 0.07 0.079 0.07 0.092 0 0.005 0 0.021-0.04 0.055l-0.01 0.003v0.002 0.004l-6.78 8.996-0.03 0.039-0.01 0.014 0.01 0.01c-0.02 0.05-0.04 0.103-0.04 0.162 0.01 0.088 0.06 0.171 0.13 0.227 0.13 0.094 0.31 0.089 0.43 0.003l0.01 0.008 0.01-0.008 0.03-0.027 8.7-7.531 0.01-0.004v-0.002-0.004c0.04-0.048 0.11-0.06 0.16-0.025 0.05 0.029 0.07 0.062 0.08 0.093 0 0.021-0.01 0.038-0.02 0.057l-0.01 0.006v0.002 0.004l-4.92 9.898-0.02 0.045-0.01 0.014 0.01 0.008c-0.02 0.051-0.02 0.105-0.01 0.16 0.02 0.087 0.09 0.163 0.17 0.207 0.14 0.073 0.32 0.04 0.43-0.063v0.002l0.01 0.006 0.01-0.01 0.03-0.033 4.91-6.064v0.011l0.02-0.021 0.06-0.078 2.18-2.69c1.43 0.662 2.84 1.086 3.97 1.196 3.39 0.326 6.55-0.437 8.26-1.989 0.89-0.815 1.34-1.779 1.34-2.878 0-4.144-4.64-5.739-10.02-7.586-5.54-1.903-11.82-4.06-14.82-9.493l-0.02-0.023v-0.008h-0.01l-0.02-0.002-11.62-0.732-0.04-0.002h-0.02zm50.49 13.553v0.033l0.02 0.107c0.11 0.781 0.17 1.605 0.17 2.444v0.291 0.123 0.035h0.03l-0.01 0.011-0.01 0.002 0.03 0.012 8.4 3.358 0.04 0.015 0.01 0.004v-0.01l0.01-0.011c0.15 0.042 0.32 0.002 0.4-0.127 0.05-0.072 0.06-0.16 0.04-0.243-0.01-0.062-0.05-0.112-0.1-0.152l0.01-0.01-0.02-0.007-0.04-0.03-8.86-5.767-0.09-0.061-0.03-0.017zm0.13 4.693v0.031l-0.01 0.106c-0.05 0.784-0.14 1.55-0.25 2.279v0.031l-0.01 0.012 0.01 0.006 0.03 0.017 5.47 3.311 0.04 0.021 0.01 0.006 0.01-0.01 0.01-0.009c0.13 0.063 0.31 0.05 0.41-0.063 0.06-0.065 0.1-0.151 0.09-0.238-0.01-0.06-0.04-0.112-0.07-0.158l0.01-0.01-0.01-0.012-0.04-0.035-5.6-5.191-0.08-0.073-0.02-0.021zm-0.91 5.283l-0.01 0.027-0.02 0.092c-0.16 0.504-0.35 0.995-0.55 1.461l-0.01 0.033v0.01 0.008l0.03 0.023 2.72 2.354 0.03 0.025 0.01 0.008 0.01-0.006 0.01-0.01c0.12 0.085 0.3 0.101 0.42 0.006 0.08-0.056 0.12-0.138 0.13-0.226 0-0.058-0.01-0.113-0.04-0.162l0.01-0.008-0.01-0.014-0.03-0.041-2.62-3.48-0.06-0.076-0.02-0.024z" stroke="#ffb310" stroke-width="0.3" fill="#ffb310"/></g></svg>
